<svg xmlns="http://www.w3.org/2000/svg" version="1.1" xmlns:xlink="http://www.w3.org/1999/xlink" xmlns:svgjs="http://svgjs.com/svgjs" width="1680" height="3160" preserveAspectRatio="none" viewBox="0 0 1680 3160"><g mask="url(&quot;#SvgjsMask1326&quot;)" fill="none"><rect width="1680" height="3160" x="0" y="0" fill="url(#SvgjsLinearGradient1327)"></rect><path d="M203.108,444.005C288.941,443.696,367.504,397.135,410.61,322.91C453.911,248.351,455.196,157.105,413.581,81.592C370.444,3.317,292.44,-50.868,203.108,-53.617C108.896,-56.516,14.726,-14.478,-31.064,67.909C-75.778,148.36,-55.643,246.277,-6.994,324.411C38.658,397.731,116.738,444.316,203.108,444.005" fill="rgba(173, 99, 30, 1)" class="triangle-float2"></path><path d="M-229.18 5.18 a234.36 234.36 0 1 0 468.72 0 a234.36 234.36 0 1 0 -468.72 0z" fill="rgba(173, 99, 30, 1)" class="triangle-float2"></path><path d="M133.891,369.687C210.359,363.772,258.338,294.193,293.343,225.951C324.598,165.02,340.229,93.835,305.74,34.674C271.461,-24.128,201.915,-45.234,133.891,-47.568C60.432,-50.089,-17.879,-38.325,-59.677,22.135C-106.973,90.548,-115.362,181.772,-74.894,254.433C-33.437,328.869,48.943,376.257,133.891,369.687" fill="rgba(173, 99, 30, 1)" class="triangle-float2"></path><path d="M982.82 137.19 a498.37 498.37 0 1 0 996.74 0 a498.37 498.37 0 1 0 -996.74 0z" fill="rgba(173, 99, 30, 1)" class="triangle-float1"></path><path d="M1739.43,856.625C1905.01,857.178,2059.31,771.307,2142.743,628.283C2226.825,484.147,2232.49,303.371,2145.096,161.219C2061.361,25.019,1899.201,-33.653,1739.43,-27.735C1590.315,-22.211,1460.406,62.085,1382.68,189.46C1301.141,323.085,1266.941,487.563,1340.755,625.605C1418.38,770.772,1574.813,856.075,1739.43,856.625" fill="rgba(173, 99, 30, 1)" class="triangle-float1"></path><path d="M1774.74,834.296C1922.138,828.477,2057.794,764.116,2139.891,641.56C2233.629,501.626,2296.757,323.797,2215.561,176.232C2132.311,24.934,1947.32,-28.214,1774.74,-22.063C1613.601,-16.32,1468.433,67.742,1385.182,205.829C1298.93,348.893,1267.98,530.517,1355.992,672.505C1440.49,808.824,1614.482,840.622,1774.74,834.296" fill="rgba(173, 99, 30, 1)" class="triangle-float2"></path><path d="M211.8016502112646 3268.5527353666384L409.5114151976267 2726.9561614954246-88.28350846232263 2805.799131875701z" fill="rgba(173, 99, 30, 1)" class="triangle-float1"></path><path d="M446.46613070311656 3021.267969714943L-25.504934847550317 2690.119493524929-78.18728033444756 3191.358528790539z" fill="rgba(173, 99, 30, 1)" class="triangle-float2"></path><path d="M229.036,3323.176C335.885,3328.911,453.772,3306.34,507.964,3214.075C562.636,3120.993,526.492,3005.865,469.115,2914.426C415.87,2829.572,329.195,2771.399,229.036,2769.566C125.588,2767.673,23.447,2814.885,-26.758,2905.353C-75.71,2993.563,-55.115,3100.639,-2.441,3186.679C47.687,3268.559,133.168,3318.03,229.036,3323.176" fill="rgba(173, 99, 30, 1)" class="triangle-float3"></path><path d="M1741.18,3601.181C1886.585,3598.16,2041.727,3562.629,2113.238,3435.988C2183.894,3310.861,2135.933,3159.085,2059.549,3037.37C1988.723,2924.511,1873.861,2855.343,1741.18,2843.124C1578.773,2828.168,1391.495,2831.275,1301.974,2967.604C1206.665,3112.747,1242.417,3309.324,1341.341,3452.027C1428.202,3577.328,1588.749,3604.348,1741.18,3601.181" fill="rgba(173, 99, 30, 1)" class="triangle-float2"></path><path d="M1225.41 2718.59 a13.18 13.18 0 1 0 26.36 0 a13.18 13.18 0 1 0 -26.36 0z" fill="rgba(173, 99, 30, 1)" class="triangle-float1"></path><path d="M1781.1532748627292 3069.17845962876L1373.8558397385764 2661.103957434263 1234.9346124068088 3145.5798521871757z" fill="rgba(173, 99, 30, 1)" class="triangle-float2"></path></g><defs><mask id="SvgjsMask1326"><rect width="1680" height="3160" fill="#ffffff"></rect></mask><linearGradient x1="-22.02%" y1="88.29%" x2="122.02%" y2="11.71%" gradientUnits="userSpaceOnUse" id="SvgjsLinearGradient1327"><stop stop-color="rgba(14, 42, 71, 1)" offset="0"></stop><stop stop-color="rgba(255, 122, 0, 1)" offset="0"></stop></linearGradient><style>
            @keyframes float1 {
                0%{transform: translate(0, 0)}
                50%{transform: translate(-10px, 0)}
                100%{transform: translate(0, 0)}
            }

            .triangle-float1 {
                animation: float1 5s infinite;
            }

            @keyframes float2 {
                0%{transform: translate(0, 0)}
                50%{transform: translate(-5px, -5px)}
                100%{transform: translate(0, 0)}
            }

            .triangle-float2 {
                animation: float2 4s infinite;
            }

            @keyframes float3 {
                0%{transform: translate(0, 0)}
                50%{transform: translate(0, -10px)}
                100%{transform: translate(0, 0)}
            }

            .triangle-float3 {
                animation: float3 6s infinite;
            }
        </style></defs></svg>